<svg xmlns="http://www.w3.org/2000/svg" xmlns:xlink="http://www.w3.org/1999/xlink" width="500" zoomAndPan="magnify" viewBox="0 0 375 374.999991" height="500" preserveAspectRatio="xMidYMid meet" version="1.0"><defs><g/><clipPath id="f153b79d8d"><path d="M 83.691406 64.023438 L 291.441406 64.023438 L 291.441406 271.773438 L 83.691406 271.773438 Z M 83.691406 64.023438 " clip-rule="nonzero"/></clipPath><clipPath id="6933f29471"><path d="M 187.6875 64.023438 C 130.253906 64.023438 83.691406 110.585938 83.691406 168.023438 C 83.691406 225.457031 130.253906 272.019531 187.6875 272.019531 C 245.125 272.019531 291.6875 225.457031 291.6875 168.023438 C 291.6875 110.585938 245.125 64.023438 187.6875 64.023438 Z M 187.6875 64.023438 " clip-rule="nonzero"/></clipPath><clipPath id="2a9ff10d5e"><path d="M 75.636719 160.027344 L 299.363281 160.027344 L 299.363281 307.277344 L 75.636719 307.277344 Z M 75.636719 160.027344 " clip-rule="nonzero"/></clipPath><clipPath id="5516af3102"><path d="M 118.347656 98.679688 L 257.042969 98.679688 L 257.042969 237.375 L 118.347656 237.375 Z M 118.347656 98.679688 " clip-rule="nonzero"/></clipPath><clipPath id="6b7e804e95"><path d="M 187.695312 98.679688 C 149.394531 98.679688 118.347656 129.726562 118.347656 168.027344 C 118.347656 206.328125 149.394531 237.375 187.695312 237.375 C 225.992188 237.375 257.042969 206.328125 257.042969 168.027344 C 257.042969 129.726562 225.992188 98.679688 187.695312 98.679688 Z M 187.695312 98.679688 " clip-rule="nonzero"/></clipPath><clipPath id="27668df11d"><path d="M 138.753906 120.421875 L 237 120.421875 L 237 215.671875 L 138.753906 215.671875 Z M 138.753906 120.421875 " clip-rule="nonzero"/></clipPath></defs><rect x="-37.5" width="450" fill="#ffffff" y="-37.499999" height="449.999989" fill-opacity="1"/><rect x="-37.5" width="450" fill="#ffffff" y="-37.499999" height="449.999989" fill-opacity="1"/><g clip-path="url(#f153b79d8d)"><g clip-path="url(#6933f29471)"><path stroke-linecap="butt" transform="matrix(0.75, 0, 0, 0.75, 83.690478, 64.024069)" fill="none" stroke-linejoin="miter" d="M 138.662705 -0.000841461 C 62.084575 -0.000841461 0.00123739 62.082496 0.00123739 138.665834 C 0.00123739 215.243964 62.084575 277.327302 138.662705 277.327302 C 215.246043 277.327302 277.329381 215.243964 277.329381 138.665834 C 277.329381 62.082496 215.246043 -0.000841461 138.662705 -0.000841461 Z M 138.662705 -0.000841461 " stroke="#526819" stroke-width="2" stroke-opacity="1" stroke-miterlimit="4"/></g></g><g clip-path="url(#2a9ff10d5e)"><path fill="#fcfff4" d="M 75.636719 160.027344 L 299.386719 160.027344 L 299.386719 307.277344 L 75.636719 307.277344 Z M 75.636719 160.027344 " fill-opacity="1" fill-rule="nonzero"/></g><g clip-path="url(#5516af3102)"><g clip-path="url(#6b7e804e95)"><path fill="#526819" d="M 118.347656 98.679688 L 257.042969 98.679688 L 257.042969 237.375 L 118.347656 237.375 Z M 118.347656 98.679688 " fill-opacity="1" fill-rule="nonzero"/></g></g><g clip-path="url(#27668df11d)"><path fill="#fcfff4" d="M 214.636719 163.613281 L 223.546875 140.609375 L 232.25 134.214844 L 204.722656 120.527344 L 204.875 131.328125 L 183.609375 165.765625 L 185.507812 165.765625 C 185.511719 165.765625 185.511719 165.765625 185.511719 165.765625 C 188.851562 165.765625 192.207031 168.027344 194.484375 171.816406 C 196.957031 175.933594 198.378906 182.621094 195.148438 189.28125 C 190.839844 188.5625 183.820312 186.03125 180.058594 177.332031 L 179.179688 175.300781 L 178.148438 177.257812 C 175.207031 182.855469 171.261719 186.488281 166.421875 188.054688 C 163.214844 189.09375 160.0625 189.015625 157.964844 188.5625 C 156.671875 182.636719 158.019531 176.425781 161.613281 171.824219 C 164.628906 167.972656 168.890625 165.757812 173.304688 165.757812 C 173.308594 165.757812 173.3125 165.757812 173.316406 165.757812 L 173.316406 164.699219 L 173.316406 165.757812 L 173.339844 165.757812 L 173.339844 163.640625 L 173.316406 163.640625 L 138.753906 163.613281 L 138.753906 164.671875 C 138.753906 183.664062 149.816406 201.003906 166.996094 209.035156 L 166.996094 215.519531 L 208.394531 215.519531 L 208.394531 209.035156 C 225.574219 201.003906 236.636719 183.664062 236.636719 164.671875 L 236.636719 163.613281 Z M 207.105469 207.296875 L 182.945312 207.296875 L 182.945312 209.414062 L 206.28125 209.414062 L 206.28125 213.402344 L 169.113281 213.402344 L 169.113281 207.671875 L 168.488281 207.390625 C 152.035156 199.980469 141.289062 183.707031 140.882812 165.730469 L 165.4375 165.753906 C 163.382812 166.910156 161.515625 168.519531 159.949219 170.523438 C 155.832031 175.792969 154.375 182.957031 156.058594 189.691406 L 156.207031 190.289062 L 156.800781 190.453125 C 157.945312 190.773438 162.070312 191.691406 167.078125 190.070312 C 171.914062 188.503906 175.921875 185.132812 179.011719 180.035156 C 183.589844 188.664062 191.265625 190.921875 195.613281 191.484375 L 196.339844 191.582031 L 196.683594 190.933594 C 200.757812 183.277344 199.15625 175.472656 196.300781 170.722656 C 194.027344 166.941406 190.753906 164.457031 187.300781 163.8125 L 206.332031 132.996094 L 216.117188 137.859375 L 217.058594 135.964844 L 206.988281 130.960938 L 206.886719 123.96875 L 228.195312 134.566406 L 221.792969 139.269531 L 211.546875 165.730469 L 234.511719 165.730469 C 234.105469 183.632812 223.445312 199.84375 207.105469 207.296875 Z M 207.105469 207.296875 " fill-opacity="1" fill-rule="nonzero"/></g><g fill="#526819" fill-opacity="1"><g transform="translate(153.374174, 260.644974)"><g><path d="M 1.890625 -14.71875 L 6.09375 -3.5 L 10.28125 -14.71875 L 12.0625 -14.71875 L 6.09375 0.875 L 0.109375 -14.71875 Z M 2.046875 0 Z M 2.046875 0 "/></g></g></g><g fill="#526819" fill-opacity="1"><g transform="translate(173.355478, 260.644974)"><g><path d="M 6.90625 -15.421875 L 13.53125 0 L 11.703125 0 L 9.96875 -4.171875 L 3.6875 -4.171875 L 1.90625 0 L 0.109375 0 Z M 4.359375 -5.703125 L 9.328125 -5.703125 L 6.875 -11.59375 Z M 2.65625 -14.71875 Z M 2.65625 -14.71875 "/></g></g></g><g fill="#526819" fill-opacity="1"><g transform="translate(194.800113, 260.644974)"><g><path d="M 3.15625 -14.71875 L 3.15625 0 L 1.515625 0 L 1.515625 -14.71875 Z M 3.15625 -14.71875 "/></g></g></g><g fill="#526819" fill-opacity="1"><g transform="translate(207.269615, 260.644974)"><g><path d="M 4.59375 -14.71875 C 5.9375 -14.71875 7.097656 -14.507812 8.078125 -14.09375 C 9.054688 -13.6875 9.867188 -13.132812 10.515625 -12.4375 C 11.171875 -11.738281 11.65625 -10.953125 11.96875 -10.078125 C 12.28125 -9.210938 12.4375 -8.285156 12.4375 -7.296875 C 12.4375 -6.035156 12.144531 -4.859375 11.5625 -3.765625 C 10.976562 -2.679688 10.117188 -1.78125 8.984375 -1.0625 C 7.859375 -0.351562 6.382812 0 4.5625 0 L 1.484375 0 L 1.484375 -14.71875 Z M 4.6875 -1.515625 C 5.582031 -1.515625 6.394531 -1.648438 7.125 -1.921875 C 7.851562 -2.191406 8.492188 -2.59375 9.046875 -3.125 C 9.609375 -3.65625 10.039062 -4.289062 10.34375 -5.03125 C 10.644531 -5.769531 10.796875 -6.546875 10.796875 -7.359375 C 10.796875 -8.421875 10.554688 -9.382812 10.078125 -10.25 C 9.609375 -11.113281 8.929688 -11.816406 8.046875 -12.359375 C 7.171875 -12.910156 5.992188 -13.1875 4.515625 -13.1875 L 3.125 -13.1875 L 3.125 -1.515625 Z M 4.6875 -1.515625 "/></g></g></g><g fill="#526819" fill-opacity="1"><g transform="translate(110.964349, 279.855896)"><g><path d="M 6.90625 -15.421875 L 13.53125 0 L 11.703125 0 L 9.96875 -4.171875 L 3.6875 -4.171875 L 1.90625 0 L 0.109375 0 Z M 4.359375 -5.703125 L 9.328125 -5.703125 L 6.875 -11.59375 Z M 2.65625 -14.71875 Z M 2.65625 -14.71875 "/></g></g></g><g fill="#526819" fill-opacity="1"><g transform="translate(132.408985, 279.855896)"><g><path d="M 3.078125 -14.71875 L 3.078125 -5.640625 C 3.078125 -4.421875 3.210938 -3.550781 3.484375 -3.03125 C 3.765625 -2.507812 4.207031 -2.082031 4.8125 -1.75 C 5.414062 -1.425781 6.039062 -1.265625 6.6875 -1.265625 C 7.300781 -1.265625 7.878906 -1.398438 8.421875 -1.671875 C 8.960938 -1.953125 9.359375 -2.253906 9.609375 -2.578125 C 9.859375 -2.910156 10.035156 -3.289062 10.140625 -3.71875 C 10.242188 -4.15625 10.296875 -4.804688 10.296875 -5.671875 L 10.296875 -14.71875 L 11.9375 -14.71875 L 11.9375 -5.328125 C 11.9375 -4.367188 11.835938 -3.59375 11.640625 -3 C 11.441406 -2.40625 11.085938 -1.847656 10.578125 -1.328125 C 10.066406 -0.816406 9.476562 -0.425781 8.8125 -0.15625 C 8.144531 0.113281 7.4375 0.25 6.6875 0.25 C 5.769531 0.25 4.90625 0.0351562 4.09375 -0.390625 C 3.28125 -0.828125 2.632812 -1.410156 2.15625 -2.140625 C 1.675781 -2.867188 1.4375 -3.941406 1.4375 -5.359375 L 1.4375 -14.71875 Z M 3.078125 -14.71875 "/></g></g></g><g fill="#526819" fill-opacity="1"><g transform="translate(153.580461, 279.855896)"><g><path d="M 8.15625 -11.84375 C 7.832031 -12.414062 7.472656 -12.828125 7.078125 -13.078125 C 6.679688 -13.328125 6.203125 -13.453125 5.640625 -13.453125 C 4.921875 -13.453125 4.332031 -13.226562 3.875 -12.78125 C 3.414062 -12.34375 3.1875 -11.800781 3.1875 -11.15625 C 3.1875 -10.664062 3.375 -10.242188 3.75 -9.890625 C 4.132812 -9.546875 4.597656 -9.25 5.140625 -9 C 5.691406 -8.75 6.1875 -8.53125 6.625 -8.34375 C 7.070312 -8.164062 7.585938 -7.894531 8.171875 -7.53125 C 8.765625 -7.164062 9.210938 -6.707031 9.515625 -6.15625 C 9.828125 -5.613281 9.984375 -4.992188 9.984375 -4.296875 C 9.984375 -3.484375 9.78125 -2.722656 9.375 -2.015625 C 8.976562 -1.316406 8.421875 -0.765625 7.703125 -0.359375 C 6.992188 0.046875 6.210938 0.25 5.359375 0.25 C 4.203125 0.25 3.210938 -0.0859375 2.390625 -0.765625 C 1.566406 -1.453125 1.03125 -2.378906 0.78125 -3.546875 L 2.375 -4 C 2.507812 -3.195312 2.847656 -2.539062 3.390625 -2.03125 C 3.929688 -1.519531 4.578125 -1.265625 5.328125 -1.265625 C 6.148438 -1.265625 6.859375 -1.546875 7.453125 -2.109375 C 8.054688 -2.671875 8.359375 -3.347656 8.359375 -4.140625 C 8.359375 -4.835938 8.128906 -5.410156 7.671875 -5.859375 C 7.210938 -6.304688 6.378906 -6.769531 5.171875 -7.25 C 3.960938 -7.738281 3.054688 -8.28125 2.453125 -8.875 C 1.847656 -9.476562 1.546875 -10.257812 1.546875 -11.21875 C 1.546875 -12.3125 1.945312 -13.207031 2.75 -13.90625 C 3.5625 -14.613281 4.53125 -14.96875 5.65625 -14.96875 C 6.488281 -14.96875 7.226562 -14.769531 7.875 -14.375 C 8.519531 -13.988281 9.050781 -13.425781 9.46875 -12.6875 Z M 8.15625 -11.84375 "/></g></g></g><g fill="#526819" fill-opacity="1"><g transform="translate(172.293536, 279.855896)"><g><path d="M 3.203125 -14.71875 L 3.203125 -8.75 L 10.734375 -8.75 L 10.734375 -14.71875 L 12.375 -14.71875 L 12.375 0 L 10.734375 0 L 10.734375 -7.21875 L 3.203125 -7.21875 L 3.203125 0 L 1.5625 0 L 1.5625 -14.71875 Z M 3.203125 -14.71875 "/></g></g></g><g fill="#526819" fill-opacity="1"><g transform="translate(194.030845, 279.855896)"><g><path d="M 6.90625 -15.421875 L 13.53125 0 L 11.703125 0 L 9.96875 -4.171875 L 3.6875 -4.171875 L 1.90625 0 L 0.109375 0 Z M 4.359375 -5.703125 L 9.328125 -5.703125 L 6.875 -11.59375 Z M 2.65625 -14.71875 Z M 2.65625 -14.71875 "/></g></g></g><g fill="#526819" fill-opacity="1"><g transform="translate(215.475479, 279.855896)"><g><path d="M 4.59375 -14.71875 C 5.9375 -14.71875 7.097656 -14.507812 8.078125 -14.09375 C 9.054688 -13.6875 9.867188 -13.132812 10.515625 -12.4375 C 11.171875 -11.738281 11.65625 -10.953125 11.96875 -10.078125 C 12.28125 -9.210938 12.4375 -8.285156 12.4375 -7.296875 C 12.4375 -6.035156 12.144531 -4.859375 11.5625 -3.765625 C 10.976562 -2.679688 10.117188 -1.78125 8.984375 -1.0625 C 7.859375 -0.351562 6.382812 0 4.5625 0 L 1.484375 0 L 1.484375 -14.71875 Z M 4.6875 -1.515625 C 5.582031 -1.515625 6.394531 -1.648438 7.125 -1.921875 C 7.851562 -2.191406 8.492188 -2.59375 9.046875 -3.125 C 9.609375 -3.65625 10.039062 -4.289062 10.34375 -5.03125 C 10.644531 -5.769531 10.796875 -6.546875 10.796875 -7.359375 C 10.796875 -8.421875 10.554688 -9.382812 10.078125 -10.25 C 9.609375 -11.113281 8.929688 -11.816406 8.046875 -12.359375 C 7.171875 -12.910156 5.992188 -13.1875 4.515625 -13.1875 L 3.125 -13.1875 L 3.125 -1.515625 Z M 4.6875 -1.515625 "/></g></g></g><g fill="#526819" fill-opacity="1"><g transform="translate(236.510386, 279.855896)"><g><path d="M 3.203125 -14.71875 L 3.203125 -8.75 L 10.734375 -8.75 L 10.734375 -14.71875 L 12.375 -14.71875 L 12.375 0 L 10.734375 0 L 10.734375 -7.21875 L 3.203125 -7.21875 L 3.203125 0 L 1.5625 0 L 1.5625 -14.71875 Z M 3.203125 -14.71875 "/></g></g></g><g fill="#526819" fill-opacity="1"><g transform="translate(258.247702, 279.855896)"><g><path d="M 3.15625 -14.71875 L 3.15625 0 L 1.515625 0 L 1.515625 -14.71875 Z M 3.15625 -14.71875 "/></g></g></g><g fill="#526819" fill-opacity="1"><g transform="translate(110.856743, 180.067184)"><g><path d="M -7.640625 -0.984375 L -4.71875 -1.375 L -5.078125 -4.015625 L -8 -3.625 L -8.1875 -5.078125 L -0.8125 -6.0625 L -0.625 -4.609375 L -3.921875 -4.171875 L -3.5625 -1.53125 L -0.265625 -1.96875 L -0.078125 -0.53125 L -7.453125 0.453125 Z M -7.640625 -0.984375 "/></g></g></g><g fill="#526819" fill-opacity="1"><g transform="translate(109.766166, 169.822485)"><g><path d="M -7.5 -4.28125 L -6.234375 -4.296875 L -6.203125 -1.90625 L -4.5625 -1.921875 L -4.578125 -4.21875 L -3.3125 -4.234375 L -3.296875 -1.9375 L -1.296875 -1.96875 L -1.328125 -4.359375 L -0.0625 -4.375 L 0 -0.53125 L -7.4375 -0.4375 Z M -7.5 -4.28125 "/></g></g></g><g fill="#526819" fill-opacity="1"><g transform="translate(109.848722, 161.332392)"><g><path d="M -7.15625 -3.265625 C -7.070312 -4.046875 -6.816406 -4.625 -6.390625 -5 C -5.960938 -5.382812 -5.390625 -5.539062 -4.671875 -5.46875 C -4.148438 -5.414062 -3.707031 -5.226562 -3.34375 -4.90625 C -2.976562 -4.59375 -2.789062 -4.207031 -2.78125 -3.75 L 0.5625 -5.53125 L 0.390625 -3.796875 L -2.78125 -2.28125 L -2.78125 -2.265625 L 0.203125 -1.96875 L 0.046875 -0.53125 L -7.359375 -1.28125 Z M -3.796875 -2.375 L -3.78125 -2.53125 C -3.726562 -3.03125 -3.78125 -3.394531 -3.9375 -3.625 C -4.101562 -3.851562 -4.378906 -3.988281 -4.765625 -4.03125 C -5.148438 -4.070312 -5.4375 -3.992188 -5.625 -3.796875 C -5.820312 -3.609375 -5.945312 -3.265625 -6 -2.765625 L -6.015625 -2.59375 Z M -3.796875 -2.375 "/></g></g></g><g fill="#526819" fill-opacity="1"><g transform="translate(110.987079, 152.233039)"><g><path d="M -6.75 -3.9375 C -6.59375 -4.644531 -6.304688 -5.140625 -5.890625 -5.421875 C -5.484375 -5.703125 -4.957031 -5.769531 -4.3125 -5.625 C -4.039062 -5.5625 -3.785156 -5.453125 -3.546875 -5.296875 C -3.304688 -5.148438 -3.132812 -4.945312 -3.03125 -4.6875 C -2.863281 -5.050781 -2.585938 -5.304688 -2.203125 -5.453125 C -1.816406 -5.597656 -1.394531 -5.617188 -0.9375 -5.515625 C -0.28125 -5.367188 0.179688 -5.050781 0.453125 -4.5625 C 0.722656 -4.082031 0.773438 -3.488281 0.609375 -2.78125 L 0.109375 -0.515625 L -7.15625 -2.125 Z M -3.8125 -2.875 L -3.765625 -3.046875 C -3.679688 -3.429688 -3.691406 -3.710938 -3.796875 -3.890625 C -3.910156 -4.078125 -4.140625 -4.210938 -4.484375 -4.296875 C -4.785156 -4.359375 -5.035156 -4.328125 -5.234375 -4.203125 C -5.429688 -4.085938 -5.570312 -3.84375 -5.65625 -3.46875 L -5.703125 -3.296875 Z M -0.703125 -2.1875 L -0.609375 -2.578125 C -0.503906 -3.046875 -0.507812 -3.398438 -0.625 -3.640625 C -0.738281 -3.878906 -0.988281 -4.039062 -1.375 -4.125 C -1.664062 -4.1875 -1.890625 -4.164062 -2.046875 -4.0625 C -2.210938 -3.96875 -2.332031 -3.84375 -2.40625 -3.6875 C -2.5 -3.519531 -2.582031 -3.269531 -2.65625 -2.9375 L -2.734375 -2.640625 Z M -0.703125 -2.1875 "/></g></g></g><g fill="#526819" fill-opacity="1"><g transform="translate(113.173613, 143.371274)"><g><path d="M -4.171875 -5.703125 C -4.390625 -5.640625 -4.578125 -5.535156 -4.734375 -5.390625 C -4.890625 -5.253906 -5.007812 -5.078125 -5.09375 -4.859375 C -5.175781 -4.617188 -5.171875 -4.390625 -5.078125 -4.171875 C -4.984375 -3.953125 -4.828125 -3.804688 -4.609375 -3.734375 C -4.398438 -3.660156 -4.195312 -3.679688 -4 -3.796875 C -3.8125 -3.910156 -3.597656 -4.109375 -3.359375 -4.390625 C -2.941406 -4.867188 -2.582031 -5.1875 -2.28125 -5.34375 C -1.988281 -5.507812 -1.707031 -5.59375 -1.4375 -5.59375 C -1.164062 -5.601562 -0.882812 -5.554688 -0.59375 -5.453125 C 0.113281 -5.210938 0.617188 -4.800781 0.921875 -4.21875 C 1.222656 -3.644531 1.253906 -3.007812 1.015625 -2.3125 C 0.847656 -1.832031 0.578125 -1.453125 0.203125 -1.171875 C -0.171875 -0.898438 -0.609375 -0.71875 -1.109375 -0.625 L -1.671875 -1.796875 C -1.335938 -1.804688 -1.03125 -1.894531 -0.75 -2.0625 C -0.46875 -2.238281 -0.285156 -2.457031 -0.203125 -2.71875 C -0.109375 -2.988281 -0.128906 -3.238281 -0.265625 -3.46875 C -0.398438 -3.695312 -0.613281 -3.863281 -0.90625 -3.96875 C -1.175781 -4.0625 -1.410156 -4.054688 -1.609375 -3.953125 C -1.816406 -3.847656 -2.039062 -3.648438 -2.28125 -3.359375 C -2.789062 -2.753906 -3.238281 -2.375 -3.625 -2.21875 C -4.019531 -2.070312 -4.457031 -2.082031 -4.9375 -2.25 C -5.3125 -2.382812 -5.628906 -2.59375 -5.890625 -2.875 C -6.148438 -3.15625 -6.316406 -3.488281 -6.390625 -3.875 C -6.472656 -4.269531 -6.453125 -4.660156 -6.328125 -5.046875 C -6.210938 -5.378906 -6.007812 -5.707031 -5.71875 -6.03125 C -5.4375 -6.351562 -5.15625 -6.566406 -4.875 -6.671875 Z M -4.171875 -5.703125 "/></g></g></g><g fill="#526819" fill-opacity="1"><g transform="translate(116.313083, 135.049391)"><g/></g></g><g fill="#526819" fill-opacity="1"><g transform="translate(119.189876, 129.13952)"><g><path d="M -4.296875 -7.390625 L -3.203125 -6.75 L -4.328125 -4.828125 L -2.921875 -4 L -1.875 -5.796875 L -0.78125 -5.15625 L -1.828125 -3.359375 L 1 -1.71875 L 0.265625 -0.453125 L -6.15625 -4.203125 Z M -4.296875 -7.390625 "/></g></g></g><g fill="#526819" fill-opacity="1"><g transform="translate(123.442313, 122.102596)"><g><path d="M -2.859375 -2.40625 C -3.441406 -2.851562 -3.875 -3.378906 -4.15625 -3.984375 C -4.445312 -4.597656 -4.550781 -5.226562 -4.46875 -5.875 C -4.382812 -6.53125 -4.128906 -7.140625 -3.703125 -7.703125 C -3.273438 -8.265625 -2.75 -8.664062 -2.125 -8.90625 C -1.507812 -9.15625 -0.875 -9.21875 -0.21875 -9.09375 C 0.425781 -8.96875 1.035156 -8.6875 1.609375 -8.25 C 2.210938 -7.789062 2.660156 -7.253906 2.953125 -6.640625 C 3.242188 -6.023438 3.347656 -5.394531 3.265625 -4.75 C 3.179688 -4.101562 2.925781 -3.5 2.5 -2.9375 C 2.070312 -2.375 1.554688 -1.972656 0.953125 -1.734375 C 0.359375 -1.492188 -0.269531 -1.429688 -0.9375 -1.546875 C -1.613281 -1.660156 -2.253906 -1.945312 -2.859375 -2.40625 Z M -2.578125 -6.8125 C -2.953125 -6.320312 -3.078125 -5.769531 -2.953125 -5.15625 C -2.835938 -4.539062 -2.515625 -4.03125 -1.984375 -3.625 C -1.398438 -3.175781 -0.796875 -2.960938 -0.171875 -2.984375 C 0.441406 -3.003906 0.953125 -3.28125 1.359375 -3.8125 C 1.765625 -4.34375 1.894531 -4.90625 1.75 -5.5 C 1.613281 -6.101562 1.253906 -6.628906 0.671875 -7.078125 C 0.128906 -7.492188 -0.445312 -7.679688 -1.0625 -7.640625 C -1.6875 -7.597656 -2.191406 -7.320312 -2.578125 -6.8125 Z M -2.578125 -6.8125 "/></g></g></g><g fill="#526819" fill-opacity="1"><g transform="translate(130.583531, 113.289011)"><g><path d="M -3.484375 -7.046875 C -2.929688 -7.597656 -2.363281 -7.890625 -1.78125 -7.921875 C -1.207031 -7.953125 -0.671875 -7.710938 -0.171875 -7.203125 C 0.203125 -6.828125 0.429688 -6.398438 0.515625 -5.921875 C 0.597656 -5.441406 0.5 -5.019531 0.21875 -4.65625 L 3.9375 -3.9375 L 2.6875 -2.703125 L -0.71875 -3.546875 L -0.71875 -3.53125 L 1.40625 -1.40625 L 0.375 -0.375 L -4.890625 -5.625 Z M -1.4375 -4.25 L -1.328125 -4.359375 C -0.972656 -4.710938 -0.785156 -5.023438 -0.765625 -5.296875 C -0.742188 -5.578125 -0.867188 -5.859375 -1.140625 -6.140625 C -1.421875 -6.410156 -1.695312 -6.535156 -1.96875 -6.515625 C -2.238281 -6.492188 -2.546875 -6.304688 -2.890625 -5.953125 L -3.015625 -5.828125 Z M -1.4375 -4.25 "/></g></g></g><g fill="#526819" fill-opacity="1"><g transform="translate(137.266591, 106.957924)"><g/></g></g><g fill="#526819" fill-opacity="1"><g transform="translate(142.356376, 102.874324)"><g><path d="M -2.078125 -7.71875 L 2.09375 -4.578125 L 0.9375 -9.640625 L 1.828125 -10.203125 L 6.875 -4.375 L 5.625 -3.578125 L 2.65625 -7.15625 L 2.640625 -7.140625 L 3.734375 -2.265625 L 3.3125 -2 L -0.578125 -5.09375 L 1.3125 -0.84375 L 0.09375 -0.0625 L -2.953125 -7.171875 Z M -2.078125 -7.71875 "/></g></g></g><g fill="#526819" fill-opacity="1"><g transform="translate(152.600426, 96.802257)"><g><path d="M -1.453125 -7.546875 L 1.78125 -0.859375 L 0.484375 -0.234375 L -2.75 -6.921875 Z M -1.453125 -7.546875 "/></g></g></g><g fill="#526819" fill-opacity="1"><g transform="translate(158.205159, 94.16457)"><g><path d="M -1.046875 -7.71875 L 4.359375 -4.125 L 4.390625 -4.140625 L 2.734375 -8.859375 L 4.09375 -9.328125 L 6.609375 -2.1875 L 5.625 -1.84375 L 0.203125 -5.4375 L 0.1875 -5.421875 L 1.875 -0.65625 L 0.5 -0.171875 L -2.03125 -7.359375 Z M -1.046875 -7.71875 "/></g></g></g><g fill="#526819" fill-opacity="1"><g transform="translate(168.772505, 90.733494)"><g><path d="M 1.09375 -7.8125 C 1.519531 -7.90625 1.960938 -7.914062 2.421875 -7.84375 C 2.890625 -7.769531 3.320312 -7.597656 3.71875 -7.328125 C 4.125 -7.066406 4.460938 -6.722656 4.734375 -6.296875 C 5.015625 -5.867188 5.207031 -5.394531 5.3125 -4.875 C 5.457031 -4.175781 5.429688 -3.515625 5.234375 -2.890625 C 5.035156 -2.273438 4.695312 -1.757812 4.21875 -1.34375 C 3.75 -0.9375 3.203125 -0.664062 2.578125 -0.53125 L 0.515625 -0.109375 L -0.984375 -7.390625 Z M 1.6875 -1.640625 L 1.890625 -1.671875 C 2.710938 -1.847656 3.285156 -2.179688 3.609375 -2.671875 C 3.929688 -3.160156 4.007812 -3.800781 3.84375 -4.59375 C 3.675781 -5.375 3.347656 -5.925781 2.859375 -6.25 C 2.378906 -6.582031 1.722656 -6.660156 0.890625 -6.484375 L 0.6875 -6.453125 Z M 1.6875 -1.640625 "/></g></g></g><g fill="#526819" fill-opacity="1"><g transform="translate(178.678465, 88.979733)"><g><path d="M 2.4375 -1.65625 L 1.328125 1.453125 L 0.390625 1.421875 L 1.171875 -1.65625 Z M 2.4375 -1.65625 "/></g></g></g><g fill="#526819" fill-opacity="1"><g transform="translate(185.255877, 88.494841)"><g/></g></g><g fill="#526819" fill-opacity="1"><g transform="translate(191.815771, 88.530912)"><g><path d="M 3.03125 -7.203125 C 3.75 -7.140625 4.273438 -6.921875 4.609375 -6.546875 C 4.941406 -6.171875 5.078125 -5.65625 5.015625 -5 C 4.992188 -4.726562 4.921875 -4.460938 4.796875 -4.203125 C 4.679688 -3.941406 4.5 -3.742188 4.25 -3.609375 C 4.644531 -3.503906 4.9375 -3.265625 5.125 -2.890625 C 5.320312 -2.523438 5.398438 -2.109375 5.359375 -1.640625 C 5.296875 -0.984375 5.039062 -0.488281 4.59375 -0.15625 C 4.144531 0.175781 3.554688 0.3125 2.828125 0.25 L 0.53125 0.046875 L 1.1875 -7.359375 Z M 2.359375 -4.15625 L 2.515625 -4.140625 C 2.910156 -4.109375 3.191406 -4.15625 3.359375 -4.28125 C 3.535156 -4.414062 3.640625 -4.660156 3.671875 -5.015625 C 3.691406 -5.328125 3.628906 -5.566406 3.484375 -5.734375 C 3.335938 -5.910156 3.070312 -6.015625 2.6875 -6.046875 L 2.53125 -6.0625 Z M 2.078125 -0.984375 L 2.46875 -0.953125 C 2.945312 -0.910156 3.296875 -0.957031 3.515625 -1.09375 C 3.742188 -1.238281 3.878906 -1.503906 3.921875 -1.890625 C 3.941406 -2.191406 3.890625 -2.414062 3.765625 -2.5625 C 3.640625 -2.707031 3.5 -2.8125 3.34375 -2.875 C 3.15625 -2.9375 2.890625 -2.984375 2.546875 -3.015625 L 2.265625 -3.046875 Z M 2.078125 -0.984375 "/></g></g></g><g fill="#526819" fill-opacity="1"><g transform="translate(200.859717, 89.493279)"><g><path d="M 0.984375 -3.609375 C 1.140625 -4.335938 1.429688 -4.957031 1.859375 -5.46875 C 2.296875 -5.976562 2.828125 -6.332031 3.453125 -6.53125 C 4.078125 -6.726562 4.734375 -6.75 5.421875 -6.59375 C 6.109375 -6.445312 6.691406 -6.144531 7.171875 -5.6875 C 7.660156 -5.226562 7.984375 -4.675781 8.140625 -4.03125 C 8.304688 -3.382812 8.3125 -2.707031 8.15625 -2 C 7.988281 -1.257812 7.6875 -0.628906 7.25 -0.109375 C 6.820312 0.398438 6.296875 0.753906 5.671875 0.953125 C 5.054688 1.160156 4.40625 1.191406 3.71875 1.046875 C 3.03125 0.890625 2.453125 0.585938 1.984375 0.140625 C 1.515625 -0.296875 1.1875 -0.84375 1 -1.5 C 0.820312 -2.164062 0.816406 -2.867188 0.984375 -3.609375 Z M 5.09375 -5.234375 C 4.5 -5.359375 3.941406 -5.234375 3.421875 -4.859375 C 2.910156 -4.492188 2.585938 -3.984375 2.453125 -3.328125 C 2.285156 -2.609375 2.34375 -1.96875 2.625 -1.40625 C 2.90625 -0.851562 3.375 -0.503906 4.03125 -0.359375 C 4.6875 -0.210938 5.253906 -0.332031 5.734375 -0.71875 C 6.222656 -1.101562 6.550781 -1.65625 6.71875 -2.375 C 6.863281 -3.039062 6.785156 -3.644531 6.484375 -4.1875 C 6.179688 -4.738281 5.71875 -5.085938 5.09375 -5.234375 Z M 5.09375 -5.234375 "/></g></g></g><g fill="#526819" fill-opacity="1"><g transform="translate(211.855403, 92.239827)"><g><path d="M 5.078125 -6.046875 C 5.484375 -5.898438 5.863281 -5.671875 6.21875 -5.359375 C 6.570312 -5.046875 6.847656 -4.671875 7.046875 -4.234375 C 7.253906 -3.796875 7.359375 -3.320312 7.359375 -2.8125 C 7.359375 -2.3125 7.269531 -1.8125 7.09375 -1.3125 C 6.84375 -0.632812 6.46875 -0.0859375 5.96875 0.328125 C 5.476562 0.753906 4.921875 1.015625 4.296875 1.109375 C 3.679688 1.203125 3.070312 1.140625 2.46875 0.921875 L 0.5 0.1875 L 3.09375 -6.78125 Z M 2.296875 -0.5 L 2.484375 -0.421875 C 3.273438 -0.128906 3.9375 -0.101562 4.46875 -0.34375 C 5 -0.59375 5.40625 -1.097656 5.6875 -1.859375 C 5.96875 -2.609375 5.988281 -3.25 5.75 -3.78125 C 5.519531 -4.3125 5.003906 -4.722656 4.203125 -5.015625 L 4.015625 -5.09375 Z M 2.296875 -0.5 "/></g></g></g><g fill="#526819" fill-opacity="1"><g transform="translate(221.160571, 95.959957)"><g><path d="M 4.796875 -5.890625 L 4.75 -2.984375 L 7.203125 -4.625 L 8.703125 -3.84375 L 4.765625 -1.359375 L 3.1875 1.65625 L 1.90625 1 L 3.484375 -2.015625 L 3.296875 -6.671875 Z M 4.796875 -5.890625 "/></g></g></g><g fill="#526819" fill-opacity="1"><g transform="translate(229.448195, 100.577308)"><g><path d="M 2.953125 0.25 L 0.125 1.9375 L -0.59375 1.359375 L 1.953125 -0.546875 Z M 2.953125 0.25 "/></g></g></g><g fill="#526819" fill-opacity="1"><g transform="translate(234.86395, 104.341206)"><g/></g></g><g fill="#526819" fill-opacity="1"><g transform="translate(239.940764, 108.472104)"><g><path d="M 8.15625 -2.671875 L 4.8125 4.734375 L 3.71875 3.640625 L 4.40625 2.140625 L 2.546875 0.328125 L 1.03125 1 L -0.0625 -0.0625 L 7.34375 -3.46875 Z M 3.6875 -0.234375 L 4.9375 1 L 6.1875 -1.578125 L 6.171875 -1.59375 Z M 3.6875 -0.234375 "/></g></g></g><g fill="#526819" fill-opacity="1"><g transform="translate(247.127641, 115.838088)"><g><path d="M 7 -3.40625 L 5.28125 2.859375 L 5.3125 2.875 L 9.265625 -0.1875 L 10.140625 0.953125 L 4.140625 5.578125 L 3.515625 4.765625 L 5.21875 -1.5 L 1.21875 1.578125 L 0.328125 0.421875 L 6.359375 -4.234375 Z M 7 -3.40625 "/></g></g></g><g fill="#526819" fill-opacity="1"><g transform="translate(253.689264, 124.803841)"><g><path d="M 7.78125 -1.40625 C 7.988281 -1.03125 8.128906 -0.609375 8.203125 -0.140625 C 8.285156 0.328125 8.265625 0.789062 8.140625 1.25 C 8.015625 1.71875 7.789062 2.144531 7.46875 2.53125 C 7.144531 2.914062 6.75 3.242188 6.28125 3.515625 C 5.664062 3.867188 5.03125 4.050781 4.375 4.0625 C 3.726562 4.070312 3.132812 3.914062 2.59375 3.59375 C 2.0625 3.269531 1.632812 2.835938 1.3125 2.296875 L 0.265625 0.453125 L 6.71875 -3.25 Z M 2.078125 1.09375 L 2.1875 1.265625 C 2.601562 2.003906 3.09375 2.445312 3.65625 2.59375 C 4.226562 2.738281 4.863281 2.609375 5.5625 2.203125 C 6.257812 1.804688 6.6875 1.328125 6.84375 0.765625 C 7 0.203125 6.863281 -0.445312 6.4375 -1.1875 L 6.328125 -1.359375 Z M 2.078125 1.09375 "/></g></g></g><g fill="#526819" fill-opacity="1"><g transform="translate(258.451703, 133.664339)"><g/></g></g><g fill="#526819" fill-opacity="1"><g transform="translate(260.98345, 139.72115)"><g><path d="M 6.765625 2.03125 C 6.898438 1.84375 6.988281 1.644531 7.03125 1.4375 C 7.082031 1.238281 7.070312 1.023438 7 0.796875 C 6.925781 0.554688 6.78125 0.375 6.5625 0.25 C 6.351562 0.132812 6.140625 0.113281 5.921875 0.1875 C 5.710938 0.257812 5.566406 0.394531 5.484375 0.59375 C 5.398438 0.800781 5.347656 1.085938 5.328125 1.453125 C 5.285156 2.097656 5.195312 2.570312 5.0625 2.875 C 4.925781 3.175781 4.75 3.410156 4.53125 3.578125 C 4.320312 3.742188 4.070312 3.875 3.78125 3.96875 C 3.0625 4.207031 2.40625 4.1875 1.8125 3.90625 C 1.226562 3.632812 0.820312 3.148438 0.59375 2.453125 C 0.4375 1.960938 0.421875 1.492188 0.546875 1.046875 C 0.679688 0.609375 0.921875 0.203125 1.265625 -0.171875 L 2.421875 0.421875 C 2.160156 0.628906 1.96875 0.882812 1.84375 1.1875 C 1.726562 1.488281 1.71875 1.773438 1.8125 2.046875 C 1.894531 2.316406 2.0625 2.5 2.3125 2.59375 C 2.5625 2.695312 2.832031 2.703125 3.125 2.609375 C 3.394531 2.523438 3.578125 2.378906 3.671875 2.171875 C 3.773438 1.960938 3.84375 1.671875 3.875 1.296875 C 3.894531 0.515625 4.015625 -0.0507812 4.234375 -0.40625 C 4.453125 -0.769531 4.804688 -1.035156 5.296875 -1.203125 C 5.671875 -1.316406 6.046875 -1.335938 6.421875 -1.265625 C 6.804688 -1.203125 7.144531 -1.039062 7.4375 -0.78125 C 7.738281 -0.53125 7.953125 -0.210938 8.078125 0.171875 C 8.191406 0.515625 8.234375 0.898438 8.203125 1.328125 C 8.171875 1.765625 8.078125 2.113281 7.921875 2.375 Z M 6.765625 2.03125 "/></g></g></g><g fill="#526819" fill-opacity="1"><g transform="translate(263.581939, 148.164421)"><g><path d="M 3.703125 -0.515625 C 4.429688 -0.660156 5.113281 -0.632812 5.75 -0.4375 C 6.394531 -0.238281 6.929688 0.101562 7.359375 0.59375 C 7.796875 1.082031 8.082031 1.675781 8.21875 2.375 C 8.351562 3.070312 8.300781 3.734375 8.0625 4.359375 C 7.832031 4.984375 7.453125 5.5 6.921875 5.90625 C 6.398438 6.3125 5.785156 6.582031 5.078125 6.71875 C 4.328125 6.851562 3.625 6.820312 2.96875 6.625 C 2.320312 6.4375 1.785156 6.097656 1.359375 5.609375 C 0.929688 5.117188 0.648438 4.523438 0.515625 3.828125 C 0.378906 3.128906 0.421875 2.476562 0.640625 1.875 C 0.867188 1.28125 1.25 0.765625 1.78125 0.328125 C 2.3125 -0.0976562 2.953125 -0.378906 3.703125 -0.515625 Z M 6.8125 2.625 C 6.695312 2.019531 6.367188 1.554688 5.828125 1.234375 C 5.285156 0.910156 4.6875 0.8125 4.03125 0.9375 C 3.300781 1.070312 2.738281 1.375 2.34375 1.84375 C 1.945312 2.320312 1.8125 2.894531 1.9375 3.5625 C 2.0625 4.21875 2.394531 4.691406 2.9375 4.984375 C 3.476562 5.273438 4.113281 5.351562 4.84375 5.21875 C 5.507812 5.09375 6.03125 4.785156 6.40625 4.296875 C 6.789062 3.804688 6.925781 3.25 6.8125 2.625 Z M 6.8125 2.625 "/></g></g></g><g fill="#526819" fill-opacity="1"><g transform="translate(265.403616, 159.345947)"><g><path d="M 7.515625 1.578125 L 3.296875 1.78125 C 2.578125 1.8125 2.046875 1.941406 1.703125 2.171875 C 1.359375 2.410156 1.195312 2.753906 1.21875 3.203125 C 1.238281 3.660156 1.425781 3.984375 1.78125 4.171875 C 2.144531 4.359375 2.6875 4.4375 3.40625 4.40625 L 7.640625 4.203125 L 7.71875 5.65625 L 3.25 5.875 C 2.25 5.914062 1.460938 5.71875 0.890625 5.28125 C 0.316406 4.84375 0.00390625 4.171875 -0.046875 3.265625 C -0.0859375 2.367188 0.15625 1.671875 0.6875 1.171875 C 1.21875 0.671875 1.984375 0.398438 2.984375 0.359375 L 7.453125 0.140625 Z M 7.515625 1.578125 "/></g></g></g><g fill="#526819" fill-opacity="1"><g transform="translate(265.621947, 169.524449)"><g><path d="M 7.296875 2.46875 L 1.140625 2.0625 L 1 4.09375 L -0.265625 4.015625 L -0.03125 0.53125 L 7.390625 1.015625 Z M 7.296875 2.46875 "/></g></g></g><g fill="#526819" fill-opacity="1"><g transform="translate(264.926432, 177.184848)"><g/></g></g><g fill="#737373" fill-opacity="1"><g transform="translate(151.00416, 303.257061)"><g><path d="M 4.640625 -7.890625 L 4.640625 -6.546875 L 2.109375 -6.546875 L 2.109375 -4.8125 L 4.546875 -4.8125 L 4.546875 -3.46875 L 2.109375 -3.46875 L 2.109375 -1.34375 L 4.640625 -1.34375 L 4.640625 0 L 0.5625 0 L 0.5625 -7.890625 Z M 4.640625 -7.890625 "/></g></g></g><g fill="#737373" fill-opacity="1"><g transform="translate(160.300269, 303.257061)"><g><path d="M 4.28125 -6.15625 C 4.132812 -6.351562 3.960938 -6.507812 3.765625 -6.625 C 3.578125 -6.738281 3.351562 -6.796875 3.09375 -6.796875 C 2.832031 -6.796875 2.609375 -6.707031 2.421875 -6.53125 C 2.234375 -6.363281 2.140625 -6.160156 2.140625 -5.921875 C 2.140625 -5.691406 2.226562 -5.5 2.40625 -5.34375 C 2.59375 -5.1875 2.867188 -5.039062 3.234375 -4.90625 C 3.859375 -4.644531 4.300781 -4.394531 4.5625 -4.15625 C 4.832031 -3.914062 5.015625 -3.660156 5.109375 -3.390625 C 5.210938 -3.117188 5.265625 -2.816406 5.265625 -2.484375 C 5.265625 -1.679688 5.023438 -1.03125 4.546875 -0.53125 C 4.078125 -0.0390625 3.453125 0.203125 2.671875 0.203125 C 2.128906 0.203125 1.65625 0.0625 1.25 -0.21875 C 0.851562 -0.5 0.515625 -0.867188 0.234375 -1.328125 L 1.234375 -2.296875 C 1.347656 -1.960938 1.535156 -1.6875 1.796875 -1.46875 C 2.066406 -1.257812 2.351562 -1.15625 2.65625 -1.15625 C 2.945312 -1.15625 3.1875 -1.257812 3.375 -1.46875 C 3.570312 -1.6875 3.671875 -1.960938 3.671875 -2.296875 C 3.671875 -2.585938 3.578125 -2.816406 3.390625 -2.984375 C 3.210938 -3.160156 2.945312 -3.320312 2.59375 -3.46875 C 1.800781 -3.769531 1.257812 -4.085938 0.96875 -4.421875 C 0.6875 -4.753906 0.546875 -5.191406 0.546875 -5.734375 C 0.546875 -6.148438 0.640625 -6.539062 0.828125 -6.90625 C 1.023438 -7.269531 1.300781 -7.5625 1.65625 -7.78125 C 2.019531 -8 2.414062 -8.109375 2.84375 -8.109375 C 3.226562 -8.109375 3.628906 -8.019531 4.046875 -7.84375 C 4.472656 -7.664062 4.789062 -7.457031 5 -7.21875 Z M 4.28125 -6.15625 "/></g></g></g><g fill="#737373" fill-opacity="1"><g transform="translate(169.994038, 303.257061)"><g><path d="M 4.71875 -7.890625 L 4.71875 -6.546875 L 3.125 -6.546875 L 3.125 0 L 1.59375 0 L 1.59375 -6.546875 L 0 -6.546875 L 0 -7.890625 Z M 4.71875 -7.890625 "/></g></g></g><g fill="#737373" fill-opacity="1"><g transform="translate(178.902937, 303.257061)"><g><path d="M 1.515625 0.203125 C 1.253906 0.203125 1.035156 0.113281 0.859375 -0.0625 C 0.679688 -0.25 0.59375 -0.472656 0.59375 -0.734375 C 0.59375 -0.992188 0.679688 -1.210938 0.859375 -1.390625 C 1.035156 -1.566406 1.253906 -1.65625 1.515625 -1.65625 C 1.773438 -1.65625 1.992188 -1.566406 2.171875 -1.390625 C 2.359375 -1.210938 2.453125 -0.992188 2.453125 -0.734375 C 2.453125 -0.472656 2.359375 -0.25 2.171875 -0.0625 C 1.992188 0.113281 1.773438 0.203125 1.515625 0.203125 Z M 1.515625 0.203125 "/></g></g></g><g fill="#737373" fill-opacity="1"><g transform="translate(186.116519, 303.257061)"><g><path d="M 4.40625 -2.953125 C 4.382812 -2.921875 4.222656 -2.734375 3.921875 -2.390625 C 3.628906 -2.046875 3.332031 -1.695312 3.03125 -1.34375 L 5.609375 -1.34375 L 5.609375 0 L 0.296875 0 L 2.84375 -3.203125 C 3.144531 -3.578125 3.414062 -3.976562 3.65625 -4.40625 C 3.894531 -4.84375 4.015625 -5.203125 4.015625 -5.484375 C 4.015625 -5.816406 3.914062 -6.113281 3.71875 -6.375 C 3.53125 -6.632812 3.289062 -6.765625 3 -6.765625 C 2.71875 -6.765625 2.484375 -6.640625 2.296875 -6.390625 C 2.117188 -6.140625 2.03125 -5.832031 2.03125 -5.46875 L 2.03125 -5.40625 L 0.390625 -5.40625 C 0.460938 -6.269531 0.726562 -6.9375 1.1875 -7.40625 C 1.65625 -7.875 2.257812 -8.109375 3 -8.109375 C 3.46875 -8.109375 3.898438 -7.988281 4.296875 -7.75 C 4.703125 -7.519531 5.015625 -7.210938 5.234375 -6.828125 C 5.453125 -6.441406 5.5625 -6.019531 5.5625 -5.5625 C 5.5625 -5.113281 5.46875 -4.691406 5.28125 -4.296875 C 5.101562 -3.898438 4.8125 -3.453125 4.40625 -2.953125 Z M 4.40625 -2.953125 "/></g></g></g><g fill="#737373" fill-opacity="1"><g transform="translate(196.354466, 303.257061)"><g><path d="M 0.203125 -3.9375 C 0.203125 -4.625 0.304688 -5.289062 0.515625 -5.9375 C 0.722656 -6.582031 1.039062 -7.101562 1.46875 -7.5 C 1.894531 -7.90625 2.414062 -8.109375 3.03125 -8.109375 C 3.644531 -8.109375 4.164062 -7.90625 4.59375 -7.5 C 5.03125 -7.09375 5.347656 -6.570312 5.546875 -5.9375 C 5.753906 -5.300781 5.859375 -4.640625 5.859375 -3.953125 C 5.859375 -3.253906 5.75 -2.582031 5.53125 -1.9375 C 5.320312 -1.289062 5 -0.769531 4.5625 -0.375 C 4.132812 0.0078125 3.625 0.203125 3.03125 0.203125 C 2.40625 0.203125 1.878906 0 1.453125 -0.40625 C 1.023438 -0.8125 0.707031 -1.332031 0.5 -1.96875 C 0.300781 -2.613281 0.203125 -3.269531 0.203125 -3.9375 Z M 3.015625 -6.765625 C 2.617188 -6.765625 2.300781 -6.488281 2.0625 -5.9375 C 1.820312 -5.394531 1.703125 -4.734375 1.703125 -3.953125 C 1.703125 -3.191406 1.820312 -2.53125 2.0625 -1.96875 C 2.300781 -1.40625 2.625 -1.125 3.03125 -1.125 C 3.34375 -1.125 3.597656 -1.28125 3.796875 -1.59375 C 3.992188 -1.90625 4.132812 -2.273438 4.21875 -2.703125 C 4.300781 -3.128906 4.34375 -3.523438 4.34375 -3.890625 C 4.34375 -4.710938 4.222656 -5.394531 3.984375 -5.9375 C 3.753906 -6.488281 3.429688 -6.765625 3.015625 -6.765625 Z M 3.015625 -6.765625 "/></g></g></g><g fill="#737373" fill-opacity="1"><g transform="translate(206.592413, 303.257061)"><g><path d="M 4.40625 -2.953125 C 4.382812 -2.921875 4.222656 -2.734375 3.921875 -2.390625 C 3.628906 -2.046875 3.332031 -1.695312 3.03125 -1.34375 L 5.609375 -1.34375 L 5.609375 0 L 0.296875 0 L 2.84375 -3.203125 C 3.144531 -3.578125 3.414062 -3.976562 3.65625 -4.40625 C 3.894531 -4.84375 4.015625 -5.203125 4.015625 -5.484375 C 4.015625 -5.816406 3.914062 -6.113281 3.71875 -6.375 C 3.53125 -6.632812 3.289062 -6.765625 3 -6.765625 C 2.71875 -6.765625 2.484375 -6.640625 2.296875 -6.390625 C 2.117188 -6.140625 2.03125 -5.832031 2.03125 -5.46875 L 2.03125 -5.40625 L 0.390625 -5.40625 C 0.460938 -6.269531 0.726562 -6.9375 1.1875 -7.40625 C 1.65625 -7.875 2.257812 -8.109375 3 -8.109375 C 3.46875 -8.109375 3.898438 -7.988281 4.296875 -7.75 C 4.703125 -7.519531 5.015625 -7.210938 5.234375 -6.828125 C 5.453125 -6.441406 5.5625 -6.019531 5.5625 -5.5625 C 5.5625 -5.113281 5.46875 -4.691406 5.28125 -4.296875 C 5.101562 -3.898438 4.8125 -3.453125 4.40625 -2.953125 Z M 4.40625 -2.953125 "/></g></g></g><g fill="#737373" fill-opacity="1"><g transform="translate(216.83036, 303.257061)"><g><path d="M 4.953125 -8.046875 L 4.953125 -2.625 L 5.796875 -2.625 L 5.796875 -1.390625 L 4.953125 -1.390625 L 4.953125 0 L 3.5 0 L 3.5 -1.390625 L 0.03125 -1.390625 L 0.03125 -2.078125 L 3.546875 -8.046875 Z M 1.828125 -2.625 L 3.5 -2.625 L 3.5 -5.765625 L 3.484375 -5.765625 Z M 1.828125 -2.625 "/></g></g></g></svg>